<svg width="64" height="64" viewBox="0 0 64 64" fill="none" xmlns="http://www.w3.org/2000/svg">
<path d="M56.381 0H7.61905C3.41333 0 0 3.41333 0 7.61905V56.381C0 60.5867 3.41333 64 7.61905 64H56.381C60.5867 64 64 60.5867 64 56.381V7.61905C64 3.41333 60.5867 0 56.381 0ZM50.2857 22.8571H47.2381C43.9771 22.8571 42.6667 23.619 42.6667 25.9048V30.4762H50.2857L48.7619 38.0952H42.6667V60.9524H35.0476V38.0952H28.9524V30.4762H35.0476V25.9048C35.0476 19.8095 38.0952 15.2381 44.1905 15.2381C48.6095 15.2381 50.2857 16.7619 50.2857 16.7619V22.8571Z" fill="#3591DC"/>
</svg>
