<svg width="64" height="64" viewBox="0 0 64 64" fill="none" xmlns="http://www.w3.org/2000/svg">
<path d="M17.7778 0C7.97511 0 0 7.97511 0 17.7778V46.2222C0 56.0249 7.97511 64 17.7778 64H46.2222C56.0249 64 64 56.0249 64 46.2222V17.7778C64 7.97511 56.0249 0 46.2222 0H17.7778ZM17.7778 7.11111H46.2222C52.1031 7.11111 56.8889 11.8969 56.8889 17.7778V46.2222C56.8889 52.1031 52.1031 56.8889 46.2222 56.8889H17.7778C11.8969 56.8889 7.11111 52.1031 7.11111 46.2222V17.7778C7.11111 11.8969 11.8969 7.11111 17.7778 7.11111ZM49.7778 10.6667C48.8348 10.6667 47.9304 11.0413 47.2636 11.7081C46.5968 12.3749 46.2222 13.2792 46.2222 14.2222C46.2222 15.1652 46.5968 16.0696 47.2636 16.7364C47.9304 17.4032 48.8348 17.7778 49.7778 17.7778C50.7208 17.7778 51.6251 17.4032 52.2919 16.7364C52.9587 16.0696 53.3333 15.1652 53.3333 14.2222C53.3333 13.2792 52.9587 12.3749 52.2919 11.7081C51.6251 11.0413 50.7208 10.6667 49.7778 10.6667ZM32 14.2222C22.1973 14.2222 14.2222 22.1973 14.2222 32C14.2222 41.8027 22.1973 49.7778 32 49.7778C41.8027 49.7778 49.7778 41.8027 49.7778 32C49.7778 22.1973 41.8027 14.2222 32 14.2222ZM32 21.3333C37.8809 21.3333 42.6667 26.1191 42.6667 32C42.6667 37.8809 37.8809 42.6667 32 42.6667C26.1191 42.6667 21.3333 37.8809 21.3333 32C21.3333 26.1191 26.1191 21.3333 32 21.3333Z" fill="#3591DC"/>
</svg>
