<svg width="92" height="64" viewBox="0 0 92 64" fill="none" xmlns="http://www.w3.org/2000/svg">
<path d="M89.4319 11C88.5815 6.60156 84.5293 3.39844 79.8267 2.39844C72.7896 1 59.7658 0 45.6748 0C31.5922 0 18.36 1 11.3145 2.39844C6.62027 3.39844 2.55973 6.39844 1.70926 11C0.850463 16 0 23 0 32C0 41 0.850463 48 1.91771 53C2.77651 57.3984 6.82871 60.6016 11.5229 61.6016C18.9937 63 31.8006 64 45.8916 64C59.9826 64 72.7896 63 80.2603 61.6016C84.9545 60.6016 89.0067 57.6016 89.8655 53C90.716 48 91.7832 40.7969 92 32C91.5664 23 90.4992 16 89.4319 11ZM34.1519 46V18L60.191 32L34.1519 46Z" fill="#3591DC"/>
</svg>
